<?xml version="1.0" encoding="UTF-8"?>
<svg xmlns="http://www.w3.org/2000/svg" width="1000" height="1000" viewBox="0 0 1000 1000">
  <title>Billeo Icons Collection</title>
  <defs>
    <style>
      .icon { stroke: #000; fill: none; stroke-width: 2; stroke-linecap: round; stroke-linejoin: round; }
      .icon-title { font-family: Arial, sans-serif; font-size: 12px; text-anchor: middle; }
    </style>
  </defs>

  <g transform="translate(100, 80)">
    <g class="icon" transform="scale(1.5)">
      <path d="M4 8v11a2 2 0 0 0 2 2h12a2 2 0 0 0 2-2V8" />
      <path d="M10 12h4" />
    </g>
    <text class="icon-title" x="0" y="60">archive</text>
  </g>
  <g transform="translate(300, 80)">
    <g class="icon" transform="scale(1.5)">
      <path d="M12 5v14" />
      <path d="m19 12-7 7-7-7" />
    </g>
    <text class="icon-title" x="0" y="60">arrow-down</text>
  </g>
  <g transform="translate(500, 80)">
    <g class="icon" transform="scale(1.5)">
      <path d="m5 12 7-7 7 7" />
      <path d="M12 19V5" />
    </g>
    <text class="icon-title" x="0" y="60">arrow-up</text>
  </g>
  <g transform="translate(700, 80)">
    <g class="icon" transform="scale(1.5)">
      <path d="M3 3v18h18" />
      <path d="M18 17V9" />
      <path d="M13 17V5" />
      <path d="M8 17v-3" />
    </g>
    <text class="icon-title" x="0" y="60">bar-chart-3</text>
  </g>
  <g transform="translate(900, 80)">
    <g class="icon" transform="scale(1.5)">
      <path d="M4 19.5v-15A2.5 2.5 0 0 1 6.5 2H19a1 1 0 0 1 1 1v18a1 1 0 0 1-1 1H6.5a1 1 0 0 1 0-5H20" />
    </g>
    <text class="icon-title" x="0" y="60">book</text>
  </g>
  <g transform="translate(100, 280)">
    <g class="icon" transform="scale(1.5)">
      <path d="M16 20V4a2 2 0 0 0-2-2h-4a2 2 0 0 0-2 2v16" />
    </g>
    <text class="icon-title" x="0" y="60">briefcase</text>
  </g>
  <g transform="translate(300, 280)">
    <g class="icon" transform="scale(1.5)">
      <path d="M9 22v-4h6v4" />
      <path d="M8 6h.01" />
      <path d="M16 6h.01" />
      <path d="M12 6h.01" />
      <path d="M12 10h.01" />
      <path d="M12 14h.01" />
      <path d="M16 10h.01" />
      <path d="M16 14h.01" />
      <path d="M8 10h.01" />
      <path d="M8 14h.01" />
    </g>
    <text class="icon-title" x="0" y="60">building</text>
  </g>
  <g transform="translate(500, 280)">
    <g class="icon" transform="scale(1.5)">
      <path d="M19 17h2c.6 0 1-.4 1-1v-3c0-.9-.7-1.7-1.5-1.9C18.7 10.6 16 10 16 10s-1.3-1.4-2.2-2.3c-.5-.4-1.1-.7-1.8-.7H5c-.6 0-1.1.4-1.4.9l-1.4 2.9A3.7 3.7 0 0 0 2 12v4c0 .6.4 1 1 1h2" />
      <path d="M9 17h6" />
    </g>
    <text class="icon-title" x="0" y="60">car</text>
  </g>
  <g transform="translate(700, 280)">
    <g class="icon" transform="scale(1.5)">
      <path d="M16 4h2a2 2 0 0 1 2 2v14a2 2 0 0 1-2 2H6a2 2 0 0 1-2-2V6a2 2 0 0 1 2-2h2" />
      <path d="m9 14 2 2 4-4" />
    </g>
    <text class="icon-title" x="0" y="60">clipboard-check</text>
  </g>
  <g transform="translate(900, 280)">
    <g class="icon" transform="scale(1.5)">
      <path d="M16 4h2a2 2 0 0 1 2 2v14a2 2 0 0 1-2 2H6a2 2 0 0 1-2-2V6a2 2 0 0 1 2-2h2" />
      <path d="M12 11h4" />
      <path d="M12 16h4" />
      <path d="M8 11h.01" />
      <path d="M8 16h.01" />
    </g>
    <text class="icon-title" x="0" y="60">clipboard-list</text>
  </g>
  <g transform="translate(300, 480)">
    <g class="icon" transform="scale(1.5)">
      <path d="M17 5H9.5a3.5 3.5 0 0 0 0 7h5a3.5 3.5 0 0 1 0 7H6" />
    </g>
    <text class="icon-title" x="0" y="60">dollar-sign</text>
  </g>
  <g transform="translate(500, 480)">
    <g class="icon" transform="scale(1.5)">
      <path d="m3 9 9-7 9 7v11a2 2 0 0 1-2 2H5a2 2 0 0 1-2-2z" />
    </g>
    <text class="icon-title" x="0" y="60">home</text>
  </g>
  <g transform="translate(700, 480)">
    <g class="icon" transform="scale(1.5)">
      <path d="M22 16.92v3a2 2 0 0 1-2.18 2 19.79 19.79 0 0 1-8.63-3.07 19.5 19.5 0 0 1-6-6 19.79 19.79 0 0 1-3.07-8.67A2 2 0 0 1 4.11 2h3a2 2 0 0 1 2 1.72 12.84 12.84 0 0 0 .7 2.81 2 2 0 0 1-.45 2.11L8.09 9.91a16 16 0 0 0 6 6l1.27-1.27a2 2 0 0 1 2.11-.45 12.84 12.84 0 0 0 2.81.7A2 2 0 0 1 22 16.92z" />
    </g>
    <text class="icon-title" x="0" y="60">phone</text>
  </g>
  <g transform="translate(900, 480)">
    <g class="icon" transform="scale(1.5)">
      <path d="M21.21 15.89A10 10 0 1 1 8 2.83" />
      <path d="M22 12A10 10 0 0 0 12 2v10z" />
    </g>
    <text class="icon-title" x="0" y="60">pie-chart</text>
  </g>
  <g transform="translate(100, 680)">
    <g class="icon" transform="scale(1.5)">
      <path d="M19 5c-1.5 0-2.8 1.4-3 2-3.5-1.5-11-.3-11 5 0 1.8 0 3 2 4.5V20h4v-2h3v2h4v-4c1-.5 1.7-1 2-2h2v-4h-2c0-1-.5-1.5-1-2V5z" />
      <path d="M2 9v1c0 1.1.9 2 2 2h1" />
      <path d="M16 11h.01" />
    </g>
    <text class="icon-title" x="0" y="60">piggy-bank</text>
  </g>
  <g transform="translate(300, 680)">
    <g class="icon" transform="scale(1.5)">
      <path d="M6 2 3 6v14a2 2 0 0 0 2 2h14a2 2 0 0 0 2-2V6l-3-4Z" />
      <path d="M3 6h18" />
      <path d="M16 10a4 4 0 0 1-8 0" />
    </g>
    <text class="icon-title" x="0" y="60">shopping-bag</text>
  </g>
  <g transform="translate(900, 680)">
    <g class="icon" transform="scale(1.5)">
      <path d="M14 18V6a2 2 0 0 0-2-2H4a2 2 0 0 0-2 2v11a1 1 0 0 0 1 1h2" />
      <path d="M15 18H9" />
      <path d="M19 18h2a1 1 0 0 0 1-1v-3.65a1 1 0 0 0-.22-.624l-3.48-4.35A1 1 0 0 0 17.52 8H14" />
    </g>
    <text class="icon-title" x="0" y="60">truck</text>
  </g>
  <g transform="translate(100, 880)">
    <g class="icon" transform="scale(1.5)">
      <path d="M19 21v-2a4 4 0 0 0-4-4H9a4 4 0 0 0-4 4v2" />
    </g>
    <text class="icon-title" x="0" y="60">user</text>
  </g>
  <g transform="translate(300, 880)">
    <g class="icon" transform="scale(1.5)">
      <path d="M16 21v-2a4 4 0 0 0-4-4H6a4 4 0 0 0-4 4v2" />
      <path d="M22 21v-2a4 4 0 0 0-3-3.87" />
      <path d="M16 3.13a4 4 0 0 1 0 7.75" />
    </g>
    <text class="icon-title" x="0" y="60">users</text>
  </g>
  <g transform="translate(500, 880)">
    <g class="icon" transform="scale(1.5)">
      <path d="M12 20h.01" />
      <path d="M2 8.82a15 15 0 0 1 20 0" />
      <path d="M5 12.859a10 10 0 0 1 14 0" />
      <path d="M8.5 16.429a5 5 0 0 1 7 0" />
    </g>
    <text class="icon-title" x="0" y="60">wifi</text>
  </g>
  <g transform="translate(700, 880)">
    <g class="icon" transform="scale(1.5)">
      <path d="M4 14a1 1 0 0 1-.78-1.63l9.9-10.2a.5.5 0 0 1 .86.46l-1.92 6.02A1 1 0 0 0 13 10h7a1 1 0 0 1 .78 1.63l-9.9 10.2a.5.5 0 0 1-.86-.46l1.92-6.02A1 1 0 0 0 11 14z" />
    </g>
    <text class="icon-title" x="0" y="60">zap</text>
  </g>
</svg>